<?xml version="1.0" encoding="UTF-8" standalone="no"?>
<!-- Created with Inkscape (http://www.inkscape.org/) -->

<svg
   width="500"
   height="500"
   viewBox="0 0 132.29166 132.29167"
   version="1.1"
   id="svg1"
   xml:space="preserve"
   inkscape:version="1.4 (86a8ad7, 2024-10-11)"
   sodipodi:docname="flavor_forge.svg"
   xmlns:inkscape="http://www.inkscape.org/namespaces/inkscape"
   xmlns:sodipodi="http://sodipodi.sourceforge.net/DTD/sodipodi-0.dtd"
   xmlns="http://www.w3.org/2000/svg"
   xmlns:svg="http://www.w3.org/2000/svg"><sodipodi:namedview
     id="namedview1"
     pagecolor="#505050"
     bordercolor="#ffffff"
     borderopacity="1"
     inkscape:showpageshadow="0"
     inkscape:pageopacity="0"
     inkscape:pagecheckerboard="1"
     inkscape:deskcolor="#505050"
     inkscape:document-units="px"
     inkscape:zoom="0.32"
     inkscape:cx="-678.125"
     inkscape:cy="176.5625"
     inkscape:window-width="3440"
     inkscape:window-height="1369"
     inkscape:window-x="-8"
     inkscape:window-y="208"
     inkscape:window-maximized="1"
     inkscape:current-layer="layer1" /><defs
     id="defs1"><clipPath
       id="clip-0"><path
         clip-rule="nonzero"
         d="M 1983 4309 L 3016 4309 L 3016 4403 L 1983 4403 Z M 1983 4309 "
         id="path1" /></clipPath><clipPath
       id="clip-1"><path
         clip-rule="nonzero"
         d="M 2499.558594 4402.898438 C 2214.601562 4402.898438 1983.589844 4382.089844 1983.589844 4356.410156 C 1983.589844 4330.730469 2214.601562 4309.921875 2499.558594 4309.921875 C 2784.519531 4309.921875 3015.53125 4330.730469 3015.53125 4356.410156 C 3015.53125 4382.089844 2784.519531 4402.898438 2499.558594 4402.898438 "
         id="path2" /></clipPath><clipPath
       id="clip-2"><path
         clip-rule="nonzero"
         d="M 2499.558594 4402.898438 C 2214.601562 4402.898438 1983.589844 4382.089844 1983.589844 4356.410156 C 1983.589844 4330.730469 2214.601562 4309.921875 2499.558594 4309.921875 C 2784.519531 4309.921875 3015.53125 4330.730469 3015.53125 4356.410156 C 3015.53125 4382.089844 2784.519531 4402.898438 2499.558594 4402.898438 "
         id="path3" /></clipPath><radialGradient
       id="radial-pattern-0"
       gradientUnits="userSpaceOnUse"
       cx="0"
       cy="0"
       fx="0"
       fy="0"
       r="281.2178"
       gradientTransform="matrix(1.834674, 0, 0, 0.165326, 2499.56, 4356.41)"><stop
         offset="0"
         stop-color="rgb(59.002686%, 59.394836%, 59.313965%)"
         stop-opacity="1"
         id="stop3" /><stop
         offset="0.0078125"
         stop-color="rgb(59.121704%, 59.632874%, 59.577942%)"
         stop-opacity="1"
         id="stop4" /><stop
         offset="0.0117188"
         stop-color="rgb(59.20105%, 59.791565%, 59.753418%)"
         stop-opacity="1"
         id="stop5" /><stop
         offset="0.015625"
         stop-color="rgb(59.346008%, 59.94873%, 59.941101%)"
         stop-opacity="1"
         id="stop6" /><stop
         offset="0.0195312"
         stop-color="rgb(59.562683%, 60.10437%, 60.139465%)"
         stop-opacity="1"
         id="stop7" /><stop
         offset="0.0234375"
         stop-color="rgb(59.785461%, 60.26001%, 60.340881%)"
         stop-opacity="1"
         id="stop8" /><stop
         offset="0.0273438"
         stop-color="rgb(60.005188%, 60.414124%, 60.540771%)"
         stop-opacity="1"
         id="stop9" /><stop
         offset="0.03125"
         stop-color="rgb(60.206604%, 60.546875%, 60.688782%)"
         stop-opacity="1"
         id="stop10" /><stop
         offset="0.0351562"
         stop-color="rgb(60.380554%, 60.652161%, 60.777283%)"
         stop-opacity="1"
         id="stop11" /><stop
         offset="0.0390625"
         stop-color="rgb(60.552979%, 60.75592%, 60.85968%)"
         stop-opacity="1"
         id="stop12" /><stop
         offset="0.0429688"
         stop-color="rgb(60.723877%, 60.85968%, 60.942078%)"
         stop-opacity="1"
         id="stop13" /><stop
         offset="0.046875"
         stop-color="rgb(60.894775%, 60.992432%, 61.062622%)"
         stop-opacity="1"
         id="stop14" /><stop
         offset="0.0507812"
         stop-color="rgb(61.064148%, 61.16333%, 61.227417%)"
         stop-opacity="1"
         id="stop15" /><stop
         offset="0.0546875"
         stop-color="rgb(61.233521%, 61.341858%, 61.404419%)"
         stop-opacity="1"
         id="stop16" /><stop
         offset="0.0585938"
         stop-color="rgb(61.402893%, 61.51886%, 61.579895%)"
         stop-opacity="1"
         id="stop17" /><stop
         offset="0.0625"
         stop-color="rgb(61.572266%, 61.697388%, 61.732483%)"
         stop-opacity="1"
         id="stop18" /><stop
         offset="0.0664062"
         stop-color="rgb(61.743164%, 61.875916%, 61.849976%)"
         stop-opacity="1"
         id="stop19" /><stop
         offset="0.0703125"
         stop-color="rgb(61.912537%, 62.054443%, 61.959839%)"
         stop-opacity="1"
         id="stop20" /><stop
         offset="0.0742188"
         stop-color="rgb(62.083435%, 62.234497%, 62.069702%)"
         stop-opacity="1"
         id="stop21" /><stop
         offset="0.078125"
         stop-color="rgb(62.243652%, 62.402344%, 62.216187%)"
         stop-opacity="1"
         id="stop22" /><stop
         offset="0.0820312"
         stop-color="rgb(62.387085%, 62.553406%, 62.411499%)"
         stop-opacity="1"
         id="stop23" /><stop
         offset="0.0859375"
         stop-color="rgb(62.524414%, 62.698364%, 62.625122%)"
         stop-opacity="1"
         id="stop24" /><stop
         offset="0.0898438"
         stop-color="rgb(62.661743%, 62.843323%, 62.837219%)"
         stop-opacity="1"
         id="stop25" /><stop
         offset="0.09375"
         stop-color="rgb(62.837219%, 63.005066%, 63.038635%)"
         stop-opacity="1"
         id="stop26" /><stop
         offset="0.0976562"
         stop-color="rgb(63.07373%, 63.194275%, 63.221741%)"
         stop-opacity="1"
         id="stop27" /><stop
         offset="0.101562"
         stop-color="rgb(63.334656%, 63.392639%, 63.398743%)"
         stop-opacity="1"
         id="stop28" /><stop
         offset="0.105469"
         stop-color="rgb(63.595581%, 63.592529%, 63.577271%)"
         stop-opacity="1"
         id="stop29" /><stop
         offset="0.109375"
         stop-color="rgb(63.830566%, 63.809204%, 63.764954%)"
         stop-opacity="1"
         id="stop30" /><stop
         offset="0.113281"
         stop-color="rgb(64.022827%, 64.054871%, 63.969421%)"
         stop-opacity="1"
         id="stop31" /><stop
         offset="0.117188"
         stop-color="rgb(64.1922%, 64.31427%, 64.179993%)"
         stop-opacity="1"
         id="stop32" /><stop
         offset="0.121094"
         stop-color="rgb(64.364624%, 64.575195%, 64.39209%)"
         stop-opacity="1"
         id="stop33" /><stop
         offset="0.125"
         stop-color="rgb(64.558411%, 64.822388%, 64.596558%)"
         stop-opacity="1"
         id="stop34" /><stop
         offset="0.128906"
         stop-color="rgb(64.797974%, 65.040588%, 64.787292%)"
         stop-opacity="1"
         id="stop35" /><stop
         offset="0.132812"
         stop-color="rgb(65.060425%, 65.245056%, 64.968872%)"
         stop-opacity="1"
         id="stop36" /><stop
         offset="0.136719"
         stop-color="rgb(65.324402%, 65.449524%, 65.153503%)"
         stop-opacity="1"
         id="stop37" /><stop
         offset="0.140625"
         stop-color="rgb(65.568542%, 65.65094%, 65.338135%)"
         stop-opacity="1"
         id="stop38" /><stop
         offset="0.144531"
         stop-color="rgb(65.769958%, 65.846252%, 65.525818%)"
         stop-opacity="1"
         id="stop39" /><stop
         offset="0.148438"
         stop-color="rgb(65.943909%, 66.033936%, 65.715027%)"
         stop-opacity="1"
         id="stop40" /><stop
         offset="0.152344"
         stop-color="rgb(66.119385%, 66.22467%, 65.905762%)"
         stop-opacity="1"
         id="stop41" /><stop
         offset="0.15625"
         stop-color="rgb(66.294861%, 66.400146%, 66.078186%)"
         stop-opacity="1"
         id="stop42" /><stop
         offset="0.160156"
         stop-color="rgb(66.471863%, 66.537476%, 66.200256%)"
         stop-opacity="1"
         id="stop43" /><stop
         offset="0.164062"
         stop-color="rgb(66.648865%, 66.651917%, 66.293335%)"
         stop-opacity="1"
         id="stop44" /><stop
         offset="0.167969"
         stop-color="rgb(66.827393%, 66.764832%, 66.384888%)"
         stop-opacity="1"
         id="stop45" /><stop
         offset="0.171875"
         stop-color="rgb(67.004395%, 66.888428%, 66.491699%)"
         stop-opacity="1"
         id="stop46" /><stop
         offset="0.175781"
         stop-color="rgb(67.181396%, 67.054749%, 66.650391%)"
         stop-opacity="1"
         id="stop47" /><stop
         offset="0.179688"
         stop-color="rgb(67.356873%, 67.245483%, 66.842651%)"
         stop-opacity="1"
         id="stop48" /><stop
         offset="0.183594"
         stop-color="rgb(67.5354%, 67.43927%, 67.036438%)"
         stop-opacity="1"
         id="stop49" /><stop
         offset="0.1875"
         stop-color="rgb(67.710876%, 67.631531%, 67.230225%)"
         stop-opacity="1"
         id="stop50" /><stop
         offset="0.191406"
         stop-color="rgb(67.889404%, 67.825317%, 67.425537%)"
         stop-opacity="1"
         id="stop51" /><stop
         offset="0.195312"
         stop-color="rgb(68.06488%, 68.019104%, 67.62085%)"
         stop-opacity="1"
         id="stop52" /><stop
         offset="0.199219"
         stop-color="rgb(68.243408%, 68.214417%, 67.817688%)"
         stop-opacity="1"
         id="stop53" /><stop
         offset="0.203125"
         stop-color="rgb(68.42041%, 68.408203%, 68.013%)"
         stop-opacity="1"
         id="stop54" /><stop
         offset="0.207031"
         stop-color="rgb(68.598938%, 68.603516%, 68.211365%)"
         stop-opacity="1"
         id="stop55" /><stop
         offset="0.210938"
         stop-color="rgb(68.77594%, 68.798828%, 68.408203%)"
         stop-opacity="1"
         id="stop56" /><stop
         offset="0.214844"
         stop-color="rgb(68.955994%, 68.995667%, 68.606567%)"
         stop-opacity="1"
         id="stop57" /><stop
         offset="0.21875"
         stop-color="rgb(69.128418%, 69.186401%, 68.803406%)"
         stop-opacity="1"
         id="stop58" /><stop
         offset="0.222656"
         stop-color="rgb(69.258118%, 69.329834%, 68.989563%)"
         stop-opacity="1"
         id="stop59" /><stop
         offset="0.226562"
         stop-color="rgb(69.346619%, 69.430542%, 69.163513%)"
         stop-opacity="1"
         id="stop60" /><stop
         offset="0.230469"
         stop-color="rgb(69.436646%, 69.529724%, 69.337463%)"
         stop-opacity="1"
         id="stop61" /><stop
         offset="0.234375"
         stop-color="rgb(69.526672%, 69.631958%, 69.509888%)"
         stop-opacity="1"
         id="stop62" /><stop
         offset="0.238281"
         stop-color="rgb(69.664001%, 69.78302%, 69.659424%)"
         stop-opacity="1"
         id="stop63" /><stop
         offset="0.242188"
         stop-color="rgb(69.842529%, 69.979858%, 69.787598%)"
         stop-opacity="1"
         id="stop64" /><stop
         offset="0.246094"
         stop-color="rgb(70.024109%, 70.178223%, 69.915771%)"
         stop-opacity="1"
         id="stop65" /><stop
         offset="0.25"
         stop-color="rgb(70.202637%, 70.375061%, 70.043945%)"
         stop-opacity="1"
         id="stop66" /><stop
         offset="0.253906"
         stop-color="rgb(70.474243%, 70.594788%, 70.207214%)"
         stop-opacity="1"
         id="stop67" /><stop
         offset="0.261719"
         stop-color="rgb(70.835876%, 70.834351%, 70.405579%)"
         stop-opacity="1"
         id="stop68" /><stop
         offset="0.269531"
         stop-color="rgb(71.19751%, 71.153259%, 70.704651%)"
         stop-opacity="1"
         id="stop69" /><stop
         offset="0.277344"
         stop-color="rgb(71.559143%, 71.554565%, 71.113586%)"
         stop-opacity="1"
         id="stop70" /><stop
         offset="0.285156"
         stop-color="rgb(71.922302%, 71.885681%, 71.499634%)"
         stop-opacity="1"
         id="stop71" /><stop
         offset="0.292969"
         stop-color="rgb(72.285461%, 72.138977%, 71.856689%)"
         stop-opacity="1"
         id="stop72" /><stop
         offset="0.300781"
         stop-color="rgb(72.650146%, 72.45636%, 72.172546%)"
         stop-opacity="1"
         id="stop73" /><stop
         offset="0.308594"
         stop-color="rgb(73.014832%, 72.85614%, 72.444153%)"
         stop-opacity="1"
         id="stop74" /><stop
         offset="0.316406"
         stop-color="rgb(73.381042%, 73.196411%, 72.75238%)"
         stop-opacity="1"
         id="stop75" /><stop
         offset="0.324219"
         stop-color="rgb(73.745728%, 73.458862%, 73.109436%)"
         stop-opacity="1"
         id="stop76" /><stop
         offset="0.332031"
         stop-color="rgb(74.113464%, 73.777771%, 73.434448%)"
         stop-opacity="1"
         id="stop77" /><stop
         offset="0.339844"
         stop-color="rgb(74.481201%, 74.177551%, 73.71521%)"
         stop-opacity="1"
         id="stop78" /><stop
         offset="0.347656"
         stop-color="rgb(74.848938%, 74.526978%, 73.965454%)"
         stop-opacity="1"
         id="stop79" /><stop
         offset="0.355469"
         stop-color="rgb(75.216675%, 74.795532%, 74.183655%)"
         stop-opacity="1"
         id="stop80" /><stop
         offset="0.363281"
         stop-color="rgb(75.585938%, 75.112915%, 74.481201%)"
         stop-opacity="1"
         id="stop81" /><stop
         offset="0.371094"
         stop-color="rgb(75.956726%, 75.517273%, 74.891663%)"
         stop-opacity="1"
         id="stop82" /><stop
         offset="0.378906"
         stop-color="rgb(76.25885%, 75.863647%, 75.306702%)"
         stop-opacity="1"
         id="stop83" /><stop
         offset="0.386719"
         stop-color="rgb(76.469421%, 76.107788%, 75.692749%)"
         stop-opacity="1"
         id="stop84" /><stop
         offset="0.394531"
         stop-color="rgb(76.646423%, 76.296997%, 75.965881%)"
         stop-opacity="1"
         id="stop85" /><stop
         offset="0.398438"
         stop-color="rgb(76.870728%, 76.493835%, 76.123047%)"
         stop-opacity="1"
         id="stop86" /><stop
         offset="0.402344"
         stop-color="rgb(77.148438%, 76.728821%, 76.264954%)"
         stop-opacity="1"
         id="stop87" /><stop
         offset="0.40625"
         stop-color="rgb(77.427673%, 76.963806%, 76.40686%)"
         stop-opacity="1"
         id="stop88" /><stop
         offset="0.410156"
         stop-color="rgb(77.723694%, 77.288818%, 76.675415%)"
         stop-opacity="1"
         id="stop89" /><stop
         offset="0.417969"
         stop-color="rgb(77.973938%, 77.690125%, 77.099609%)"
         stop-opacity="1"
         id="stop90" /><stop
         offset="0.425781"
         stop-color="rgb(78.222656%, 78.038025%, 77.478027%)"
         stop-opacity="1"
         id="stop91" /><stop
         offset="0.433594"
         stop-color="rgb(78.564453%, 78.323364%, 77.74353%)"
         stop-opacity="1"
         id="stop92" /><stop
         offset="0.441406"
         stop-color="rgb(78.938293%, 78.640747%, 78.039551%)"
         stop-opacity="1"
         id="stop93" /><stop
         offset="0.449219"
         stop-color="rgb(79.315186%, 79.046631%, 78.453064%)"
         stop-opacity="1"
         id="stop94" /><stop
         offset="0.457031"
         stop-color="rgb(79.692078%, 79.43573%, 78.845215%)"
         stop-opacity="1"
         id="stop95" /><stop
         offset="0.464844"
         stop-color="rgb(80.06897%, 79.740906%, 79.124451%)"
         stop-opacity="1"
         id="stop96" /><stop
         offset="0.472656"
         stop-color="rgb(80.444336%, 80.056763%, 79.418945%)"
         stop-opacity="1"
         id="stop97" /><stop
         offset="0.480469"
         stop-color="rgb(80.82428%, 80.462646%, 79.832458%)"
         stop-opacity="1"
         id="stop98" /><stop
         offset="0.488281"
         stop-color="rgb(81.20575%, 80.909729%, 80.300903%)"
         stop-opacity="1"
         id="stop99" /><stop
         offset="0.496094"
         stop-color="rgb(81.587219%, 81.358337%, 80.770874%)"
         stop-opacity="1"
         id="stop100" /><stop
         offset="0.503906"
         stop-color="rgb(81.874084%, 81.695557%, 81.124878%)"
         stop-opacity="1"
         id="stop101" /><stop
         offset="0.507812"
         stop-color="rgb(82.064819%, 81.880188%, 81.34613%)"
         stop-opacity="1"
         id="stop102" /><stop
         offset="0.511719"
         stop-color="rgb(82.252502%, 82.022095%, 81.549072%)"
         stop-opacity="1"
         id="stop103" /><stop
         offset="0.515625"
         stop-color="rgb(82.443237%, 82.162476%, 81.752014%)"
         stop-opacity="1"
         id="stop104" /><stop
         offset="0.519531"
         stop-color="rgb(82.63092%, 82.302856%, 81.954956%)"
         stop-opacity="1"
         id="stop105" /><stop
         offset="0.523438"
         stop-color="rgb(82.873535%, 82.543945%, 82.240295%)"
         stop-opacity="1"
         id="stop106" /><stop
         offset="0.535156"
         stop-color="rgb(83.071899%, 82.774353%, 82.485962%)"
         stop-opacity="1"
         id="stop107" /><stop
         offset="0.539062"
         stop-color="rgb(83.209229%, 82.93457%, 82.621765%)"
         stop-opacity="1"
         id="stop108" /><stop
         offset="0.542969"
         stop-color="rgb(83.39386%, 83.151245%, 82.777405%)"
         stop-opacity="1"
         id="stop109" /><stop
         offset="0.546875"
         stop-color="rgb(83.587646%, 83.378601%, 82.93457%)"
         stop-opacity="1"
         id="stop110" /><stop
         offset="0.550781"
         stop-color="rgb(83.779907%, 83.604431%, 83.091736%)"
         stop-opacity="1"
         id="stop111" /><stop
         offset="0.554688"
         stop-color="rgb(83.972168%, 83.798218%, 83.236694%)"
         stop-opacity="1"
         id="stop112" /><stop
         offset="0.558594"
         stop-color="rgb(84.162903%, 83.94928%, 83.364868%)"
         stop-opacity="1"
         id="stop113" /><stop
         offset="0.5625"
         stop-color="rgb(84.353638%, 84.089661%, 83.486938%)"
         stop-opacity="1"
         id="stop114" /><stop
         offset="0.566406"
         stop-color="rgb(84.544373%, 84.230042%, 83.610535%)"
         stop-opacity="1"
         id="stop115" /><stop
         offset="0.570312"
         stop-color="rgb(84.736633%, 84.402466%, 83.778381%)"
         stop-opacity="1"
         id="stop116" /><stop
         offset="0.574219"
         stop-color="rgb(84.928894%, 84.620667%, 84.005737%)"
         stop-opacity="1"
         id="stop117" /><stop
         offset="0.578125"
         stop-color="rgb(85.124207%, 84.854126%, 84.251404%)"
         stop-opacity="1"
         id="stop118" /><stop
         offset="0.582031"
         stop-color="rgb(85.317993%, 85.08606%, 84.498596%)"
         stop-opacity="1"
         id="stop119" /><stop
         offset="0.585938"
         stop-color="rgb(85.513306%, 85.290527%, 84.706116%)"
         stop-opacity="1"
         id="stop120" /><stop
         offset="0.589844"
         stop-color="rgb(85.704041%, 85.449219%, 84.854126%)"
         stop-opacity="1"
         id="stop121" /><stop
         offset="0.59375"
         stop-color="rgb(85.896301%, 85.592651%, 84.979248%)"
         stop-opacity="1"
         id="stop122" /><stop
         offset="0.597656"
         stop-color="rgb(86.087036%, 85.734558%, 85.10437%)"
         stop-opacity="1"
         id="stop123" /><stop
         offset="0.601562"
         stop-color="rgb(86.347961%, 85.987854%, 85.354614%)"
         stop-opacity="1"
         id="stop124" /><stop
         offset="0.613281"
         stop-color="rgb(86.564636%, 86.228943%, 85.606384%)"
         stop-opacity="1"
         id="stop125" /><stop
         offset="0.617188"
         stop-color="rgb(86.688232%, 86.378479%, 85.765076%)"
         stop-opacity="1"
         id="stop126" /><stop
         offset="0.621094"
         stop-color="rgb(86.860657%, 86.585999%, 85.984802%)"
         stop-opacity="1"
         id="stop127" /><stop
         offset="0.625"
         stop-color="rgb(87.057495%, 86.82251%, 86.238098%)"
         stop-opacity="1"
         id="stop128" /><stop
         offset="0.628906"
         stop-color="rgb(87.350464%, 87.158203%, 86.58905%)"
         stop-opacity="1"
         id="stop129" /><stop
         offset="0.636719"
         stop-color="rgb(87.739563%, 87.519836%, 86.943054%)"
         stop-opacity="1"
         id="stop130" /><stop
         offset="0.644531"
         stop-color="rgb(88.1073%, 87.823486%, 87.210083%)"
         stop-opacity="1"
         id="stop131" /><stop
         offset="0.652344"
         stop-color="rgb(88.38501%, 88.192749%, 87.512207%)"
         stop-opacity="1"
         id="stop132" /><stop
         offset="0.660156"
         stop-color="rgb(88.589478%, 88.597107%, 87.852478%)"
         stop-opacity="1"
         id="stop133" /><stop
         offset="0.667969"
         stop-color="rgb(88.792419%, 88.917542%, 88.246155%)"
         stop-opacity="1"
         id="stop134" /><stop
         offset="0.675781"
         stop-color="rgb(89.002991%, 89.167786%, 88.668823%)"
         stop-opacity="1"
         id="stop135" /><stop
         offset="0.683594"
         stop-color="rgb(89.309692%, 89.445496%, 89.009094%)"
         stop-opacity="1"
         id="stop136" /><stop
         offset="0.691406"
         stop-color="rgb(89.697266%, 89.741516%, 89.274597%)"
         stop-opacity="1"
         id="stop137" /><stop
         offset="0.699219"
         stop-color="rgb(90.084839%, 90.040588%, 89.543152%)"
         stop-opacity="1"
         id="stop138" /><stop
         offset="0.707031"
         stop-color="rgb(90.466309%, 90.344238%, 89.813232%)"
         stop-opacity="1"
         id="stop139" /><stop
         offset="0.714844"
         stop-color="rgb(90.760803%, 90.711975%, 90.12146%)"
         stop-opacity="1"
         id="stop140" /><stop
         offset="0.722656"
         stop-color="rgb(90.9729%, 91.136169%, 90.466309%)"
         stop-opacity="1"
         id="stop141" /><stop
         offset="0.730469"
         stop-color="rgb(91.27655%, 91.505432%, 90.866089%)"
         stop-opacity="1"
         id="stop142" /><stop
         offset="0.738281"
         stop-color="rgb(91.665649%, 91.815186%, 91.317749%)"
         stop-opacity="1"
         id="stop143" /><stop
         offset="0.746094"
         stop-color="rgb(92.062378%, 92.219543%, 91.815186%)"
         stop-opacity="1"
         id="stop144" /><stop
         offset="0.761719"
         stop-color="rgb(92.358398%, 92.54303%, 92.152405%)"
         stop-opacity="1"
         id="stop145" /><stop
         offset="0.765625"
         stop-color="rgb(92.552185%, 92.697144%, 92.292786%)"
         stop-opacity="1"
         id="stop146" /><stop
         offset="0.769531"
         stop-color="rgb(92.749023%, 92.849731%, 92.430115%)"
         stop-opacity="1"
         id="stop147" /><stop
         offset="0.773438"
         stop-color="rgb(92.944336%, 93.002319%, 92.56897%)"
         stop-opacity="1"
         id="stop148" /><stop
         offset="0.777344"
         stop-color="rgb(93.09845%, 93.145752%, 92.747498%)"
         stop-opacity="1"
         id="stop149" /><stop
         offset="0.78125"
         stop-color="rgb(93.205261%, 93.276978%, 92.970276%)"
         stop-opacity="1"
         id="stop150" /><stop
         offset="0.785156"
         stop-color="rgb(93.305969%, 93.406677%, 93.197632%)"
         stop-opacity="1"
         id="stop151" /><stop
         offset="0.789062"
         stop-color="rgb(93.406677%, 93.534851%, 93.424988%)"
         stop-opacity="1"
         id="stop152" /><stop
         offset="0.792969"
         stop-color="rgb(93.545532%, 93.675232%, 93.618774%)"
         stop-opacity="1"
         id="stop153" /><stop
         offset="0.796875"
         stop-color="rgb(93.734741%, 93.829346%, 93.768311%)"
         stop-opacity="1"
         id="stop154" /><stop
         offset="0.800781"
         stop-color="rgb(93.93158%, 93.983459%, 93.908691%)"
         stop-opacity="1"
         id="stop155" /><stop
         offset="0.804688"
         stop-color="rgb(94.128418%, 94.137573%, 94.049072%)"
         stop-opacity="1"
         id="stop156" /><stop
         offset="0.808594"
         stop-color="rgb(94.325256%, 94.294739%, 94.226074%)"
         stop-opacity="1"
         id="stop157" /><stop
         offset="0.8125"
         stop-color="rgb(94.522095%, 94.454956%, 94.450378%)"
         stop-opacity="1"
         id="stop158" /><stop
         offset="0.816406"
         stop-color="rgb(94.818115%, 94.694519%, 94.802856%)"
         stop-opacity="1"
         id="stop159" /><stop
         offset="0.824219"
         stop-color="rgb(95.217896%, 95.091248%, 95.231628%)"
         stop-opacity="1"
         id="stop160" /><stop
         offset="0.832031"
         stop-color="rgb(95.623779%, 95.581055%, 95.610046%)"
         stop-opacity="1"
         id="stop161" /><stop
         offset="0.839844"
         stop-color="rgb(95.947266%, 95.982361%, 95.94574%)"
         stop-opacity="1"
         id="stop162" /><stop
         offset="0.847656"
         stop-color="rgb(96.273804%, 96.391296%, 96.376038%)"
         stop-opacity="1"
         id="stop163" /><stop
         offset="0.863281"
         stop-color="rgb(96.682739%, 96.907043%, 96.940613%)"
         stop-opacity="1"
         id="stop164" /><stop
         offset="0.878906"
         stop-color="rgb(97.061157%, 97.343445%, 97.407532%)"
         stop-opacity="1"
         id="stop165" /><stop
         offset="0.890625"
         stop-color="rgb(97.331238%, 97.55249%, 97.595215%)"
         stop-opacity="1"
         id="stop166" /><stop
         offset="0.894531"
         stop-color="rgb(97.523499%, 97.613525%, 97.605896%)"
         stop-opacity="1"
         id="stop167" /><stop
         offset="0.898438"
         stop-color="rgb(97.715759%, 97.673035%, 97.616577%)"
         stop-opacity="1"
         id="stop168" /><stop
         offset="0.902344"
         stop-color="rgb(97.993469%, 97.879028%, 97.796631%)"
         stop-opacity="1"
         id="stop169" /><stop
         offset="0.914062"
         stop-color="rgb(98.278809%, 98.184204%, 98.11554%)"
         stop-opacity="1"
         id="stop170" /><stop
         offset="0.921875"
         stop-color="rgb(98.484802%, 98.443604%, 98.400879%)"
         stop-opacity="1"
         id="stop171" /><stop
         offset="0.929688"
         stop-color="rgb(98.794556%, 98.83728%, 98.834229%)"
         stop-opacity="1"
         id="stop172" /><stop
         offset="0.945312"
         stop-color="rgb(99.156189%, 99.29657%, 99.339294%)"
         stop-opacity="1"
         id="stop173" /><stop
         offset="0.957031"
         stop-color="rgb(99.414062%, 99.62616%, 99.702454%)"
         stop-opacity="1"
         id="stop174" /><stop
         offset="0.964844"
         stop-color="rgb(99.714661%, 99.865723%, 99.92218%)"
         stop-opacity="1"
         id="stop175" /><stop
         offset="0.980469"
         stop-color="rgb(99.95575%, 99.984741%, 99.996948%)"
         stop-opacity="1"
         id="stop176" /><stop
         offset="1"
         stop-color="rgb(100%, 100%, 100%)"
         stop-opacity="1"
         id="stop177" /></radialGradient></defs><g
     inkscape:label="Layer 1"
     inkscape:groupmode="layer"
     id="layer1"><g
       id="g2"
       transform="matrix(0.03138686,0,0,0.03138686,-19.049743,-1.0780621)"
       style="fill:#e7b019;fill-opacity:1"><path
         id="path4"
         style="fill:#e7b019;fill-opacity:1"
         d="m 4360.4211,2361.5007 -2167.7949,-2.067 v 847.8871 c 0,0 334.8024,56.8993 323.0993,331.7313 -0.02,2.539 -0.061,5.0598 -0.1189,7.5715 -3.961,178.1797 -151.0994,319.875 -329.3299,319.875 H 1942.67 l 0.01,277.7706 533.6761,-2e-4 c 126.1875,-91.1328 281.1675,-144.8418 448.7066,-144.8418 167.543,0 322.5216,53.7092 448.7052,144.842 l 492.7186,-0.01 7e-4,-277.7564 h -281.4911 c -84.8399,0 -166.0254,-36.9774 -219.8536,-102.5477 -42.6406,-51.9492 -72.6309,-124.2791 -68.791,-224.9002 23.0273,-603.5391 1064.0715,-883.7332 1064.0715,-883.7332 z m -2268.644,192.2606 H 1035.0069 c 172.4883,459.0196 1056.7788,602.2755 1056.7788,602.2755 z" /></g><g
       id="g7"
       transform="matrix(0.31259177,-0.0188276,0.0188276,0.31259177,-311.47192,-194.64833)"
       style="display:inline;fill:#e7b019;fill-opacity:1"><path
         id="path7"
         style="fill:#e7b019;fill-opacity:1;stroke-width:0.694579"
         d="m 1028.0729,748.10933 c -7.5665,3.63208 -14.6293,9.20042 -21.0087,17.56079 -14.28496,18.91103 -11.31757,40.69334 -0.4648,56.86127 11.1469,16.60574 30.6203,26.88177 47.9635,22.83097 -0.6227,3.75178 -1.1494,8.02433 -1.4856,12.61459 -0.974,13.27835 -0.9716,28.32587 -0.334,32.86237 0.4232,3.03059 3.2258,5.14599 6.2564,4.72271 3.0307,-0.42321 5.1472,-3.22632 4.7239,-6.25698 -0.586,-4.21089 -0.4558,-18.17739 0.4721,-30.50076 0.6214,-8.23729 1.3163,-15.7239 2.8439,-18.258 0.9035,-1.50314 3.5455,-2.05802 7.0184,-2.92083 10.3373,-2.56939 27.213,-3.32988 46.5988,-3.00697 43.848,0.72979 100.2757,7.24959 124.5154,13.34342 2.876,0.72444 5.963,1.83622 7.6804,2.4901 l -2.5235,53.54554 c -6.6039,-1.5466 -17.8776,-4.09445 -30.9146,-6.64747 -11.7942,-2.30899 -25.0371,-4.55004 -37.5342,-6.28377 -12.5295,-1.5762 -25.9319,-2.05643 -39.1235,-1.64128 -21.6649,0.68103 -42.6039,3.49708 -57.9118,5.52109 -0.033,0.003 -0.063,0.0333 -0.053,0.0687 0,0.0327 0.032,0.0565 0.065,0.0565 15.3459,-0.55095 36.3183,-1.05025 57.8476,0.0242 12.8252,0.63756 25.8143,1.77414 37.8771,4.11557 9.7296,1.77169 19.8819,3.98117 29.4568,6.08937 23.8436,5.2555 43.9625,10.37478 43.9625,10.37478 1.5221,0.3798 3.1367,0.0597 4.3984,-0.87362 1.2643,-0.9334 2.0404,-2.38517 2.1214,-3.95067 l 3.3856,-61.2304 c 0.4178,-1.51668 0.2365,-3.0699 -0.5883,-4.65167 -0.9252,-1.77444 -4.6263,-4.61231 -11.3279,-6.62013 -1.9108,-0.57202 -4.1626,-1.15202 -6.6349,-1.73471 3.8546,-2.27642 7.6075,-4.96776 10.8704,-8.05368 5.2908,-5.00583 9.2974,-10.81543 10.2144,-17.38136 0.01,-0.0323 -0.01,-0.0654 -0.045,-0.0734 -0.032,-0.008 -0.063,0.014 -0.073,0.0466 -2.035,5.90393 -6.7321,10.60324 -12.5328,14.27694 -7.0539,4.47036 -15.6368,7.16376 -22.743,8.31498 -10.6285,-1.89308 -23.364,-3.71195 -37.1647,-5.29679 2.9614,-2.54219 5.6276,-5.59549 7.9338,-9.07205 8.807,-13.27835 12.5999,-32.09473 8.6304,-46.87351 -0.01,-0.0326 -0.04,-0.0528 -0.073,-0.0448 -0.033,0.005 -0.058,0.0367 -0.048,0.0693 1.7174,12.03303 -1.805,26.13408 -8.7373,37.21755 -5.5796,8.91908 -13.398,15.83335 -22.5061,17.13603 -5.8633,-0.56877 -11.7786,-1.10411 -17.7354,-1.55651 -3.0636,-0.23249 -6.123,-0.43361 -9.1772,-0.63014 1.3983,-1.51876 2.6945,-3.16022 3.8939,-4.9209 5.8171,-8.53575 9.5046,-19.28825 13.4279,-29.27012 0.013,-0.0299 0,-0.0679 -0.03,-0.0838 -0.03,-0.0139 -0.065,-0.004 -0.082,0.0262 -5.486,8.82873 -10.8245,18.4692 -17.8598,25.58593 -3.6129,3.65245 -7.694,6.45062 -12.5525,7.92058 -19.1384,-0.88672 -37.1643,-0.92218 -51.1024,0.28288 -7.5106,-1.77438 -16.9082,-6.73547 -23.4907,-13.70797 -5.0629,-5.36402 -8.4595,-11.74348 -8.2262,-18.7354 0,-0.0352 -0.021,-0.0635 -0.054,-0.0705 -0.033,-0.003 -0.069,0.0221 -0.069,0.0547 -1.9344,9.05662 2.3062,18.14781 8.6416,25.7556 2.7386,3.28847 5.8932,6.225 9.1615,8.7274 -8.6292,1.97259 -14.3391,5.11523 -16.3832,8.52358 -0.01,0.0116 -0.014,0.0308 -0.021,0.0425 -0.4454,0.0452 -0.8912,0.13419 -1.3252,0.31588 l -6e-4,-10e-4 c -14.7164,6.2078 -32.1344,-3.17467 -42.0186,-17.66582 -9.0132,-13.21875 -11.7963,-31.06836 -0.211,-46.71814 7.0082,-9.53956 15.134,-14.83545 23.903,-17.92584 11.4118,-4.02092 23.917,-4.15164 36.6934,-4.7214 6.6585,-0.29745 13.3409,-0.73482 19.9457,-1.64537 -3.192,2.23517 -6.2815,4.43473 -9.2695,6.48661 -12.0521,8.28342 -21.6871,14.21231 -27.9383,10.89674 6.0666,5.68416 19.7976,1.8229 36.2993,-5.0062 7.1493,-2.95738 14.6682,-6.5096 22.2869,-10.02862 3.0198,-1.39729 6.0256,-2.79617 8.9884,-4.21242 2.9818,-1.42173 5.9224,-2.82503 8.7956,-4.18161 6.0884,-2.87604 11.8417,-5.46708 17.4146,-6.78303 7.6919,-1.81786 14.7018,-1.89909 20.6464,2.75945 1.7717,1.34033 2.2979,3.66516 2.1839,6.28344 -0.068,1.57513 -0.326,3.20575 -0.7003,4.80803 -1.3808,2.96236 -2.5392,5.93935 -3.4581,8.87152 -0.1031,0.19531 -0.03,0.43729 0.1653,0.54036 0.1954,0.10315 0.4403,0.0301 0.5433,-0.16525 3.1067,-3.83644 6.8257,-7.31482 11.1126,-10.83384 5.6191,-4.61791 12.0067,-8.21553 18.8466,-11.10241 5.0737,-2.1407 10.3172,-3.24032 15.7056,-3.5333 2.4094,-0.13023 4.8198,0.0412 7.2861,0.36133 2.3469,0.30659 4.7668,0.61799 7.1788,1.48621 3.6547,1.04458 7.0974,2.39916 9.2896,5.8558 2.1326,3.3535 3.915,7.51876 4.3926,13.49325 0.3989,3.79303 0.5052,7.32276 -0.1839,10.87977 -0.1148,0.59037 -0.2478,1.16963 -0.3899,1.74491 -0.6472,1.15008 -1.2444,2.34168 -1.7696,3.5944 0.3811,-0.52531 0.778,-1.0284 1.1823,-1.52232 -0.7498,2.31633 -1.7935,4.53526 -3.2917,6.72598 -0.024,0.0215 -0.023,0.0625 0,0.0868 0.024,0.0215 0.062,0.0221 0.086,6e-4 3.6926,-2.43374 6.3407,-5.38056 8.5736,-8.87512 1.0193,-1.59733 1.8456,-3.26695 2.5582,-5.00444 1.1791,-0.77057 2.4027,-1.48193 3.6663,-2.13782 4.7915,-2.48799 10.0529,-3.99042 15.5254,-4.82884 10.3265,-1.78528 19.0571,1.71959 25.9187,7.6479 3.416,2.94925 6.1973,6.63433 8.5469,10.66615 2.2927,3.93959 3.98,8.28035 5.1467,12.80053 1.8341,7.1059 2.3501,14.64064 0.4834,22.01242 -2.5938,10.25859 -8.8529,20.11342 -20.9484,27.4147 -3.576,2.22752 -7.2503,4.25689 -11.1681,5.75725 -3.9776,1.5221 -8.0478,2.51528 -12.4052,2.55348 -0.032,-0.003 -0.065,0.0215 -0.065,0.0541 -0.01,0.0355 0.019,0.0675 0.054,0.0675 3.5353,0.76508 7.0138,0.88181 10.5274,0.55356 5.3233,-0.50198 10.4725,-2.08412 15.5217,-3.95081 15.9211,-6.14001 25.5346,-16.73489 30.3181,-28.58074 3.8065,-9.42565 4.2891,-19.74668 2.2542,-29.34056 -0.833,-3.92056 -2.1843,-7.71058 -3.9343,-11.25675 -2.6969,-5.4644 -6.2571,-10.44031 -10.609,-14.43137 -10.8501,-9.95207 -25.672,-14.77888 -41.5441,-9.25753 -5.579,2.08855 -10.839,4.76902 -15.3456,8.43004 0.1035,-0.37081 0.2169,-0.72772 0.317,-1.10445 1.9834,-8.3105 1.3947,-14.80272 -0.2386,-20.22371 -2.4555,-8.15318 -8.4591,-13.05085 -15.3561,-16.91445 -5.0167,-2.29538 -10.0665,-3.75853 -15.0886,-3.98101 -7.7489,-0.33916 -15.3247,1.56346 -22.1078,5.18555 -4.7046,2.51243 -9.0668,5.59168 -12.887,9.44715 -3.5311,3.56649 -6.6127,7.46339 -9.2495,11.51546 -0.1359,-2.33943 -0.9047,-4.47699 -2.3196,-6.2433 -6.8726,-8.25897 -16.7083,-10.62244 -28.0685,-9.72171 -3.9532,0.31478 -8.0473,1.16697 -12.269,2.36894 -4.6179,1.31588 -9.3825,3.0224 -14.0547,5.25534 -6.4547,3.0849 -12.7818,6.97871 -18.8676,10.96441 -1.3151,0.86176 -2.6,1.73205 -3.8777,2.603 -8.4649,0.0968 -16.9643,-0.71552 -25.4193,-1.21109 -9.1462,-0.53726 -18.1839,-0.64639 -26.8445,0.54467 -6.4099,0.88435 -12.5988,2.53777 -18.4838,5.36272 z" /></g></g></svg>
